# xmcd
#
# Track frame offsets:
#	150
#	14990
#	32154
#	48989
#	63200
#	79085
#	93942
#	110000
#	122080
#	137338
#	149043
#
# Disc length: 2198 seconds
#
# Revision: 1
# Processed by: cddbd v1.5.2PL0 Copyright (c) Steve Scherf et al.
# Submitted via: audiograbber 1.83.01
#
DISCID=9a08940b
DTITLE=Johnny Revill - Wake up Gone
DYEAR=2007
DGENRE=Country
TTITLE0=Wake Up Gone
TTITLE1=Don't Want the Preacher to Have to Lie
TTITLE2=The Girl Inside My Head
TTITLE3=Louis L'Amour
TTITLE4=Down Home's Gone Uptown
TTITLE5=That's Just the Way
TTITLE6=Bone Dry
TTITLE7=Number 34
TTITLE8=Little Miss Unhappiness
TTITLE9=Gettin' Gone Blues
TTITLE10=Shortcut to Friday
EXTD=
EXTT0=
EXTT1=
EXTT2=
EXTT3=
EXTT4=
EXTT5=
EXTT6=
EXTT7=
EXTT8=
EXTT9=
EXTT10=
PLAYORDER=
